<?xml version="1.0" encoding="UTF-8"?>
<svg id="Layer_1" data-name="Layer 1" xmlns="http://www.w3.org/2000/svg" viewBox="0 0 55 55">
  <defs>
    <style>
      .cls-1 {
        fill: #6a0225;
      }
    </style>
  </defs>
  <path class="cls-1" d="M24.56,35.48l-.84,5.25c-.51,3.13-1.26,5.52-2.24,7.17-.98,1.66-2.33,2.81-4.06,3.47-1.73.65-4.08.98-7.07.98s-5.15-.42-6.48-1.26-2.32-1.94-2.98-3.29l1.47-1.26c.79,1.73,1.77,2.59,2.94,2.59.65,0,1.13-.19,1.44-.56.3-.37.54-.91.7-1.61.16-.7.43-2.05.81-4.06l.77-4.2c.51-2.66,1.24-4.75,2.17-6.26.93-1.52,2.23-2.62,3.88-3.33,1.66-.7,3.86-1.14,6.62-1.33-4.81-.7-8.28-2.02-10.43-3.96-2.15-1.94-3.22-4.7-3.22-8.29,0-3.22.84-5.76,2.52-7.63,1.68-1.87,4.36-3.21,8.05-4.02,3.69-.82,8.66-1.23,14.91-1.23h20.58v1.4s-2.59.56-2.59.56c-.7.14-1.15.3-1.36.49-.21.19-.31.54-.31,1.05v42c0,.51.1.86.31,1.05.21.19.67.35,1.36.49l2.59.56v1.4h-23.24v-1.4s3.01-.63,3.01-.63c.7-.14,1.15-.3,1.36-.49.21-.19.31-.54.31-1.05v-19.67s-2.03,0-2.03,0c-2.47,0-4.25.15-5.32.46-1.07.3-1.85.91-2.34,1.82-.49.91-.92,2.51-1.29,4.79ZM35.55,4.75h-2.66c-2.71,0-4.8.37-6.27,1.12-1.47.75-2.48,1.89-3.04,3.43s-.84,3.62-.84,6.23.28,4.69.84,6.23,1.57,2.68,3.04,3.43c1.47.75,3.56,1.12,6.27,1.12h2.66s0-21.56,0-21.56Z"/>
</svg>