<?xml version="1.0" encoding="UTF-8"?>
<svg id="Layer_1" data-name="Layer 1" xmlns="http://www.w3.org/2000/svg" viewBox="0 0 250 50">
  <defs>
    <style>
      .cls-1 {
        fill: #6a0225;
      }
    </style>
  </defs>
  <g>
    <path d="M21.15,17.21c-.49-1.52-.95-2.66-1.38-3.43-.43-.77-1.03-1.35-1.8-1.75-.77-.4-1.86-.6-3.26-.6h-4.55v10.4h8.75v1.05h-8.75v10.22c0,.26.05.43.16.53s.33.17.68.24l1.5.31v.7H.89v-.7l1.29-.28c.35-.07.58-.15.68-.25.1-.09.16-.27.16-.52V12.14c0-.26-.05-.43-.16-.52s-.33-.18-.68-.25l-1.29-.28v-.7h21.14v6.83h-.88Z"/>
    <path d="M36.82,34.48c-.27-.27-.4-.72-.4-1.35v-.17c-1.56,1.52-3.79,2.27-6.69,2.27-1.52,0-2.7-.34-3.55-1.03-.85-.69-1.28-1.76-1.28-3.2s.43-2.58,1.28-3.4c.85-.82,2.09-1.4,3.73-1.75,1.63-.35,3.8-.56,6.51-.63v-2.55c0-1.31-.26-2.25-.77-2.82-.51-.57-1.41-.86-2.7-.86-1.07,0-2.07.15-2.99.44-.92.29-1.86.73-2.82,1.31l-.45-.67c1.12-.79,2.47-1.43,4.04-1.91,1.57-.48,3.34-.72,5.3-.72,2.64,0,4.52.52,5.64,1.56,1.12,1.04,1.68,2.54,1.68,4.5v9.69c0,.26.05.43.16.53s.33.17.68.24l1.22.28v.63h-7.21c-.65,0-1.11-.13-1.38-.4ZM36.41,31.84v-5.67c-1.31.09-2.3.3-2.98.61-.68.31-1.14.76-1.38,1.35-.24.58-.37,1.38-.37,2.38,0,.89.16,1.53.47,1.92.32.4.81.6,1.49.6,1,0,1.92-.4,2.77-1.19Z"/>
    <path d="M57.92,33.98c.52-.33.79-.9.79-1.71,0-.56-.14-1.02-.42-1.37-.28-.35-.72-.66-1.33-.94-.61-.28-1.58-.67-2.91-1.15-2.26-.82-3.87-1.66-4.83-2.54-.96-.88-1.44-2.08-1.44-3.62,0-1.75.65-3.05,1.96-3.9,1.31-.85,3.29-1.28,5.95-1.28,1.35,0,2.68.13,3.99.4,1.31.27,2.32.58,3.04.93l-.42,4.2h-.6c-.63-1.56-1.39-2.75-2.27-3.55-.89-.8-2.17-1.21-3.85-1.21-1.07,0-1.9.15-2.48.44-.58.29-.88.82-.88,1.59,0,.54.13.97.4,1.29.27.33.69.63,1.26.91.57.28,1.52.69,2.85,1.22,1.91.77,3.36,1.44,4.34,2s1.7,1.2,2.17,1.93.7,1.63.7,2.73c0,1.75-.67,3.02-2.01,3.8-1.34.78-3.35,1.17-6.04,1.17-1.42,0-2.91-.13-4.46-.4s-2.71-.58-3.48-.93l.49-4.76h.59c.42,1.84,1.17,3.18,2.24,4.01,1.07.83,2.47,1.24,4.2,1.24,1.1,0,1.91-.16,2.43-.49Z"/>
    <path d="M89.14,33.73c.11.09.33.17.68.24l1.23.28v.63h-7.28c-.63,0-1.08-.16-1.37-.49-.28-.33-.42-.82-.42-1.47v-10.64c0-1.05-.17-1.8-.51-2.24-.34-.44-.9-.67-1.7-.67-1.4,0-2.83.58-4.31,1.75v12.07c0,.26.05.44.16.54s.32.19.65.26l1.19.25v.63h-11.06v-.63l1.23-.28c.35-.07.58-.15.68-.24s.16-.27.16-.53V12.07c0-.26-.05-.43-.16-.53-.1-.09-.33-.17-.68-.24l-1.23-.28v-.63l8.4-1.05h.66v10.71c.89-.72,1.96-1.34,3.22-1.84,1.26-.5,2.67-.75,4.23-.75,2.17,0,3.72.46,4.66,1.37.93.91,1.4,2.27,1.4,4.09v10.29c0,.26.05.43.16.53Z"/>
    <path d="M92.73,34.26l1.22-.28c.35-.07.58-.15.68-.24s.16-.27.16-.53v-13.23c0-.26-.05-.43-.16-.52-.1-.09-.33-.17-.68-.25l-1.22-.28v-.63l8.4-1.05h.67v15.96c0,.26.05.43.16.53s.33.17.68.24l1.23.28v.63h-11.13v-.63ZM95.67,14.46c-.65-.5-.98-1.23-.98-2.19s.33-1.69.98-2.19c.65-.5,1.53-.75,2.62-.75s1.97.25,2.62.75c.65.5.98,1.23.98,2.19s-.33,1.69-.98,2.19c-.65.5-1.53.75-2.62.75s-1.97-.25-2.62-.75Z"/>
    <path d="M125.54,33.1c-1.88,1.47-4.58,2.21-8.1,2.21s-6.22-.73-8.1-2.21c-1.88-1.47-2.82-3.71-2.82-6.72s.94-5.25,2.82-6.72c1.88-1.47,4.58-2.21,8.1-2.21s6.22.74,8.1,2.21c1.88,1.47,2.82,3.71,2.82,6.72s-.94,5.25-2.82,6.72ZM114.1,31.18c.2,1.12.55,1.94,1.07,2.45.51.51,1.27.77,2.27.77s1.76-.26,2.27-.77.87-1.33,1.07-2.45c.2-1.12.3-2.72.3-4.79s-.1-3.68-.3-4.79c-.2-1.12-.55-1.94-1.07-2.45-.51-.51-1.27-.77-2.27-.77s-1.76.26-2.27.77-.87,1.33-1.07,2.45c-.2,1.12-.3,2.72-.3,4.79s.1,3.67.3,4.79Z"/>
    <path d="M153.68,33.73c.11.09.33.17.68.24l1.23.28v.63h-7.28c-.63,0-1.08-.16-1.37-.49-.28-.33-.42-.82-.42-1.47v-10.64c0-1.05-.17-1.8-.51-2.24-.34-.44-.9-.67-1.7-.67-1.4,0-2.83.58-4.31,1.75v12.07c0,.26.05.44.16.54s.32.19.65.26l1.19.25v.63h-11.06v-.63l1.23-.28c.35-.07.58-.15.68-.24s.16-.27.16-.53v-13.23c0-.26-.05-.43-.16-.52-.1-.09-.33-.17-.68-.25l-1.23-.28v-.63l8.4-1.05h.59v2.83c.89-.72,1.97-1.34,3.25-1.85,1.28-.51,2.71-.77,4.27-.77,2.17,0,3.72.46,4.66,1.37.93.91,1.4,2.27,1.4,4.09v10.29c0,.26.05.43.16.53Z"/>
  </g>
  <path class="cls-1" d="M175.21,32.98l-.84,5.25c-.51,3.13-1.26,5.52-2.24,7.17-.98,1.66-2.33,2.81-4.06,3.47-1.73.65-4.08.98-7.07.98s-5.15-.42-6.48-1.26-2.32-1.94-2.98-3.29l1.47-1.26c.79,1.73,1.77,2.59,2.94,2.59.65,0,1.13-.19,1.44-.56.3-.37.54-.91.7-1.61.16-.7.43-2.05.81-4.06l.77-4.2c.51-2.66,1.24-4.75,2.17-6.26.93-1.52,2.23-2.62,3.88-3.33,1.66-.7,3.86-1.14,6.62-1.33-4.81-.7-8.28-2.02-10.43-3.96-2.15-1.94-3.22-4.7-3.22-8.29,0-3.22.84-5.76,2.52-7.63,1.68-1.87,4.36-3.21,8.05-4.02,3.69-.82,8.66-1.23,14.91-1.23h20.58v1.4s-2.59.56-2.59.56c-.7.14-1.15.3-1.36.49-.21.19-.31.54-.31,1.05v42c0,.51.1.86.31,1.05.21.19.67.35,1.36.49l2.59.56v1.4h-23.24v-1.4s3.01-.63,3.01-.63c.7-.14,1.15-.3,1.36-.49.21-.19.31-.54.31-1.05v-19.67s-2.03,0-2.03,0c-2.47,0-4.25.15-5.32.46-1.07.3-1.85.91-2.34,1.82-.49.91-.92,2.51-1.29,4.79ZM186.2,2.25h-2.66c-2.71,0-4.8.37-6.27,1.12-1.47.75-2.48,1.89-3.04,3.43s-.84,3.62-.84,6.23.28,4.69.84,6.23,1.57,2.68,3.04,3.43c1.47.75,3.56,1.12,6.27,1.12h2.66s0-21.56,0-21.56Z"/>
  <g>
    <path d="M226.12,32.23c-1.54,1.7-4.02,2.55-7.46,2.55-3.73,0-6.49-.76-8.28-2.27-1.79-1.52-2.68-3.98-2.68-7.39v-13.51c0-.26-.05-.43-.16-.52s-.33-.18-.68-.25l-1.29-.28v-.7h11.34v.7l-1.26.28c-.33.07-.54.15-.65.23-.11.08-.16.25-.16.51v14.18c0,1.98.14,3.52.42,4.62.28,1.1.82,1.91,1.63,2.43.81.52,1.99.79,3.55.79,2.24,0,3.96-.73,5.15-2.21,1.19-1.47,1.78-3.42,1.78-5.84v-13.93c0-.26-.05-.43-.16-.52-.1-.09-.33-.18-.68-.25l-1.29-.28v-.7h5.32v.7l-1.26.28c-.33.07-.54.15-.65.23-.11.08-.16.25-.16.51v13.69c-.05,2.94-.84,5.26-2.38,6.97Z"/>
    <path d="M243.07,33.46c.52-.33.79-.9.79-1.71,0-.56-.14-1.02-.42-1.37-.28-.35-.72-.66-1.33-.94-.61-.28-1.58-.67-2.91-1.15-2.26-.82-3.87-1.66-4.83-2.54-.96-.88-1.44-2.08-1.44-3.62,0-1.75.65-3.05,1.96-3.9,1.31-.85,3.29-1.28,5.95-1.28,1.35,0,2.68.13,3.99.4,1.31.27,2.32.58,3.04.93l-.42,4.2h-.6c-.63-1.56-1.39-2.75-2.27-3.55-.89-.8-2.17-1.21-3.85-1.21-1.07,0-1.9.15-2.48.44s-.88.82-.88,1.59c0,.54.13.97.4,1.29.27.33.69.63,1.26.91.57.28,1.52.69,2.85,1.22,1.91.77,3.36,1.44,4.34,2,.98.56,1.7,1.2,2.17,1.93s.7,1.63.7,2.73c0,1.75-.67,3.02-2.01,3.8-1.34.78-3.35,1.17-6.04,1.17-1.42,0-2.91-.13-4.46-.4s-2.71-.58-3.48-.93l.49-4.76h.59c.42,1.84,1.17,3.18,2.24,4.01,1.07.83,2.47,1.24,4.2,1.24,1.1,0,1.91-.16,2.43-.49Z"/>
  </g>
</svg>