<?xml version="1.0" encoding="UTF-8"?>
<svg id="Layer_3" data-name="Layer 3" xmlns="http://www.w3.org/2000/svg" viewBox="0 0 219.06 220">
  <defs>
    <style>
      .cls-1 {
        fill: #6a0225;
      }
    </style>
  </defs>
  <path class="cls-1" d="M163.85,220c-6.91,0-14.54-1.38-22.86-4.73l-.53-.21-.49-.31c-55.2-34.49-92.12-69.5-127.45-120.83C.71,76.76-3.07,60,1.28,44.11,8.92,16.22,38.97,1.95,40.24,1.36l2.91-1.36,2.85,1.47c29.72,15.31,43.76,39.22,45.51,46.2,1,3.97-.76,8.36-8.24,23.74-1.74,3.58-3.99,8.2-5.08,10.85,8.41,10.31,52.16,51.53,61.98,57.3.74-.29,1.81-.87,3.06-1.55,4.68-2.56,12.52-6.84,29.05-10.13l2.93-.58,2.36,1.83c15.48,11.99,27.06,23.2,34.42,33.32,5.67,7.79,6.9,12.33,7.14,13.54l.4,1.99-.81,1.86c-.25.57-6.22,14.16-18.54,25.35-8.24,7.48-20.39,14.83-36.33,14.83ZM146.4,203.42c35.41,13.88,54.57-17.47,59.23-26.49-2.09-4.36-9.55-16.6-33.71-35.71-12.54,2.77-18.43,5.99-22.41,8.17-3.15,1.72-6.13,3.35-10.1,3.35-2.74,0-6.88,0-40.87-31.76-33.95-31.72-33.95-34.92-33.95-37.74,0-3.03,1.69-6.76,6.93-17.51,2.35-4.83,6.16-12.66,7.04-15.68-2-4.74-12.66-22.63-35.58-35.44-6.86,3.89-24.32,15.3-29.13,32.98-3.27,12.02-.1,25.13,9.43,38.97,34.58,50.25,69.13,83.06,123.12,116.86ZM141.07,140.02h0,0ZM77.59,83.96h0Z"/>
</svg>